<?xml version="1.0" encoding="UTF-8"?>
<svg version="1.1" xmlns="http://www.w3.org/2000/svg" width="512" height="176">
<path d="M0 0 C3.60654039 2.40436026 3.85452932 3.94679607 5 8 C5.309375 7.0409375 5.309375 7.0409375 5.625 6.0625 C7 4 7 4 10 3.125 C11.485 3.063125 11.485 3.063125 13 3 C13.66 3.66 14.32 4.32 15 5 C17.21158685 5.30324927 17.21158685 5.30324927 19.79418945 5.25537109 C21.29264153 5.26580948 21.29264153 5.26580948 22.82136536 5.27645874 C23.9076976 5.27546173 24.99402985 5.27446472 26.11328125 5.2734375 C28.41732234 5.29375165 30.72135875 5.31460285 33.02539062 5.3359375 C36.6544182 5.35840372 40.28325994 5.37495241 43.91235352 5.38085938 C75.81470163 5.46841299 75.81470163 5.46841299 86.28515625 14.234375 C93.31621463 21.4736424 96.26835853 29.21355248 96.375 39.3125 C96.20910716 49.20751973 93.64940489 56.06941339 86.8828125 63.3046875 C84.13075648 65.78267985 81.32046229 67.37365112 78 69 C78.78503906 69.40089844 79.57007813 69.80179687 80.37890625 70.21484375 C89.7473711 75.28416031 95.789864 80.70552316 99.40454102 90.82543945 C100.41263801 94.50691543 100.48837914 98.07656695 100.4375 101.875 C100.43065186 102.66293945 100.42380371 103.45087891 100.41674805 104.26269531 C100.16780286 113.31423043 97.67116626 120.61888445 91 127 C78.20411558 136.59102202 64.28434403 136.42558303 49.015625 136.29296875 C47.10463802 136.28736247 45.19364667 136.28309726 43.28265381 136.28010559 C38.29154218 136.26873797 33.30069908 136.2393418 28.30969238 136.20599365 C23.20129019 136.17511701 18.09284393 136.16156292 12.984375 136.14648438 C2.98944733 136.11446312 -7.00521183 136.0617627 -17 136 C-17 127.09 -17 118.18 -17 109 C-10.56886719 109.03480469 -10.56886719 109.03480469 -4.0078125 109.0703125 C-0.56492224 109.08319642 2.87796111 109.09403424 6.32086182 109.10350037 C9.94182259 109.11401205 13.562688 109.12803278 17.18359375 109.15087891 C20.67844701 109.17278889 24.17320845 109.18460641 27.66812515 109.18975449 C29.6343209 109.19518715 31.60048029 109.21077029 33.56661987 109.22659302 C45.73206534 109.56414702 45.73206534 109.56414702 56.5625 105 C59.57860422 100.80368109 59.48871967 97.04428517 59 92 C57.74069104 89.04062395 56.81838728 87.56440502 54.1875 85.75 C49.40138074 84.10904483 44.55922351 83.86529029 39.53564453 83.79467773 C38.27479034 83.77473251 37.01393616 83.75478729 35.71487427 83.73423767 C34.35418823 83.71725866 32.99350094 83.70037967 31.6328125 83.68359375 C30.22890649 83.66299884 28.82500632 83.64200174 27.42111206 83.62062073 C23.7419918 83.56566179 20.06281803 83.5161381 16.38360596 83.46777344 C12.62287687 83.41736615 8.86222464 83.36178087 5.1015625 83.30664062 C-2.26555975 83.1993797 -9.6327463 83.09786479 -17 83 C-17.02505615 81.78417236 -17.0501123 80.56834473 -17.07592773 79.31567383 C-17.17024189 74.79620183 -17.27040369 70.27687492 -17.37231445 65.75756836 C-17.41557258 63.80317585 -17.45725398 61.84874778 -17.49731445 59.89428711 C-17.55523836 57.08175955 -17.61886873 54.26940952 -17.68359375 51.45703125 C-17.70030624 50.58601273 -17.71701874 49.7149942 -17.73423767 48.81758118 C-17.81613207 45.44874603 -17.93039783 42.3390632 -18.60961914 39.03027344 C-18.73844482 38.3602832 -18.86727051 37.69029297 -19 37 C-18.00821191 35.66054707 -17.00764158 34.32756778 -16 33 C-15.79834952 29.9458355 -16.0022388 27.02560639 -16.1875 23.97265625 C-15.97075968 20.53641904 -14.96621176 18.78034632 -13 16 C-11.35 16.33 -9.7 16.66 -8 17 C-8 20.66666667 -8 24.33333333 -8 28 C-7.68197057 29.66965451 -7.35015049 31.33678518 -7 33 C-7.99 33.495 -7.99 33.495 -9 34 C-8.01 34.33 -7.02 34.66 -6 35 C-5.896875 34.443125 -5.79375 33.88625 -5.6875 33.3125 C-4.85821592 30.5230899 -3.65700944 28.3860936 -2 26 C-1.34 26 -0.68 26 0 26 C0 25.34 0 24.68 0 24 C1.98 23.01 3.96 22.02 6 21 C6 20.34 6 19.68 6 19 C5.34 19 4.68 19 4 19 C4 15 4 15 6 13 C4.02 13.33 2.04 13.66 0 14 C0.495 14.78375 0.99 15.5675 1.5 16.375 C3 19 3 19 3 21 C-0.96 21.495 -0.96 21.495 -5 22 C-6 14.25 -6 14.25 -6 12 C-6.20625 11.05125 -6.4125 10.1025 -6.625 9.125 C-7 6 -7 6 -6.375 3.75 C-4.50726185 1.37287872 -2.91508096 0.71099536 0 0 Z M-4 4 C-3.01 6.97 -2.02 9.94 -1 13 C0.32 12.67 1.64 12.34 3 12 C2.51515724 7.35413108 2.51515724 7.35413108 1 3 C-1.9254644 2.7763932 -1.9254644 2.7763932 -4 4 Z M10 14 C10.020625 14.78375 10.04125 15.5675 10.0625 16.375 C10 19 10 19 9 21 C10.65 20.34 12.3 19.68 14 19 C13.67 17.35 13.34 15.7 13 14 C12.01 14 11.02 14 10 14 Z M7.375 23.5 C6.14910156 23.91765625 6.14910156 23.91765625 4.8984375 24.34375 C4.27195312 24.5603125 3.64546875 24.776875 3 25 C3.33 27.31 3.66 29.62 4 32 C5.81495662 31.55149342 7.62693134 31.09090429 9.4375 30.625 C10.44683594 30.36976562 11.45617187 30.11453125 12.49609375 29.8515625 C15.15570324 29.27426046 15.15570324 29.27426046 16 27 C15.10636395 24.39068734 15.10636395 24.39068734 14 22 C11.53379711 22 9.70655874 22.70060843 7.375 23.5 Z M22 32 C22 40.25 22 48.5 22 57 C26.6715625 57.061875 26.6715625 57.061875 31.4375 57.125 C32.88080688 57.15231201 32.88080688 57.15231201 34.35327148 57.18017578 C41.51520958 57.22548138 48.40698577 57.16966497 54.0625 52.4375 C56.52437285 48.06966107 56.82278749 44.90055848 56 40 C54.68010883 36.73500606 53.81767388 35.45426327 50.75 33.75 C44.20814574 31.96585793 37.78393718 31.87157496 31.0625 31.9375 C28.071875 31.958125 25.08125 31.97875 22 32 Z M-14 37 C-14.33 38.32 -14.66 39.64 -15 41 C-14.01 40.67 -13.02 40.34 -12 40 C-12.33 39.01 -12.66 38.02 -13 37 C-13.33 37 -13.66 37 -14 37 Z " fill="#1C58A3" transform="translate(49,18)"/>
<path d="M0 0 C4.62 0 9.24 0 14 0 C17.55595314 3.68765511 19.49440542 6.16809839 21.875 10.5 C22.47957031 11.50160156 23.08414063 12.50320312 23.70703125 13.53515625 C25.18384691 15.99651569 26.59841436 18.49503843 28 21 C28.33 14.07 28.66 7.14 29 0 C33.29 0 37.58 0 42 0 C42 14.19 42 28.38 42 43 C28 43 28 43 24.33203125 39.640625 C23.44102038 38.20765907 22.60100182 36.74182996 21.8125 35.25 C21.37615234 34.52039063 20.93980469 33.79078125 20.49023438 33.0390625 C19.67906326 31.68093735 18.88868504 30.30997996 18.12817383 28.92285156 C16.91035917 26.8472168 15.44391121 24.92521495 14 23 C13.67 29.6 13.34 36.2 13 43 C8.71 43 4.42 43 0 43 C0 28.81 0 14.62 0 0 Z " fill="#1A3676" transform="translate(189,104)"/>
<path d="M0 0 C7.486875 -0.12375 7.486875 -0.12375 15.125 -0.25 C17.47069092 -0.30462402 17.47069092 -0.30462402 19.86376953 -0.36035156 C21.10755371 -0.3703418 22.35133789 -0.38033203 23.6328125 -0.390625 C24.90012207 -0.41157227 26.16743164 -0.43251953 27.47314453 -0.45410156 C31.62876088 0.08095634 33.76159886 1.39430277 37 4 C38.9439962 7.49225032 39.27410242 10.90359034 38.3125 14.75 C37.0134825 16.97688713 35.6281669 19.00179517 34 21 C34.61875 21.268125 35.2375 21.53625 35.875 21.8125 C38 23 38 23 40 26 C40.69502786 30.76821439 40.69437161 34.76556158 38.3125 39 C33.74722645 42.94834469 29.64834625 43.24401931 23.73046875 43.1953125 C22.48418701 43.19031738 21.23790527 43.18532227 19.95385742 43.18017578 C17.5945105 43.15286377 17.5945105 43.15286377 15.1875 43.125 C7.6696875 43.063125 7.6696875 43.063125 0 43 C0 28.81 0 14.62 0 0 Z M14 9 C14 11.64 14 14.28 14 17 C15.45947705 16.93993922 16.91779272 16.8511311 18.375 16.75 C19.18710938 16.70359375 19.99921875 16.6571875 20.8359375 16.609375 C23.18838927 16.2077908 23.18838927 16.2077908 24.2890625 13.953125 C24.52367187 13.30859375 24.75828125 12.6640625 25 12 C24.009245 10.33358994 24.009245 10.33358994 22 9 C19.28153765 8.72654521 16.74322801 8.86508715 14 9 Z M14 25 C14 27.64 14 30.28 14 33 C15.81242052 33.02687279 17.62495233 33.04633715 19.4375 33.0625 C20.95150391 33.07990234 20.95150391 33.07990234 22.49609375 33.09765625 C24.94021067 33.28612676 24.94021067 33.28612676 26 32 C26.04063832 30.33382885 26.042721 28.66611905 26 27 C22.09971775 24.39981184 18.52565431 24.84914486 14 25 Z " fill="#1A3676" transform="translate(189,32)"/>
<path d="M0 0 C0.99 0.66 1.98 1.32 3 2 C3 2.66 3 3.32 3 4 C3.94875 3.34 4.8975 2.68 5.875 2 C10.43785326 -0.58747167 14.87053185 -1.02415777 20 0 C23.34625024 2.52676039 24.67977847 4.03933542 26 8 C26.08239169 9.84610532 26.10743359 11.69505164 26.09765625 13.54296875 C26.09443359 14.61611328 26.09121094 15.68925781 26.08789062 16.79492188 C26.07532227 18.47424805 26.07532227 18.47424805 26.0625 20.1875 C26.05798828 21.31865234 26.05347656 22.44980469 26.04882812 23.61523438 C26.03703511 26.41017876 26.01909957 29.20509599 26 32 C21.71 32 17.42 32 13 32 C12.67 25.4 12.34 18.8 12 12 C10.68 11.67 9.36 11.34 8 11 C5.38462703 14.95495425 5.55735726 19.16827373 5.375 23.75 C5.33632813 24.54277344 5.29765625 25.33554688 5.2578125 26.15234375 C5.163892 28.10119416 5.08087178 30.05056451 5 32 C1.04 32 -2.92 32 -7 32 C-7.06058594 30.65164062 -7.12117188 29.30328125 -7.18359375 27.9140625 C-7.26799422 26.1510304 -7.35264247 24.38801016 -7.4375 22.625 C-7.47681641 21.73554687 -7.51613281 20.84609375 -7.55664062 19.9296875 C-7.59853516 19.07890625 -7.64042969 18.228125 -7.68359375 17.3515625 C-7.72025146 16.56604004 -7.75690918 15.78051758 -7.79467773 14.97119141 C-7.890891 12.92476504 -7.890891 12.92476504 -9 11 C-10.32 11 -11.64 11 -13 11 C-14.14654482 13.29308963 -14.19729117 14.79909656 -14.31640625 17.3515625 C-14.35830078 18.20234375 -14.40019531 19.053125 -14.44335938 19.9296875 C-14.48267578 20.81914063 -14.52199219 21.70859375 -14.5625 22.625 C-14.60568359 23.5221875 -14.64886719 24.419375 -14.69335938 25.34375 C-14.79956715 27.56231239 -14.90029959 29.78113565 -15 32 C-19.29 32 -23.58 32 -28 32 C-28 21.77 -28 11.54 -28 1 C-24.04 1 -20.08 1 -16 1 C-15.67 1.66 -15.34 2.32 -15 3 C-14.38125 2.505 -13.7625 2.01 -13.125 1.5 C-8.80948357 -0.57144789 -4.72248671 -0.61632454 0 0 Z " fill="#1A3676" transform="translate(448,43)"/>
<path d="M0 0 C3.96 0 7.92 0 12 0 C13.66666667 5 15.33333333 10 17 15 C18.65 10.05 20.3 5.1 22 0 C25.96 0 29.92 0 34 0 C36.1494799 5.30205041 38.22868122 10.55838105 40 16 C40.27714844 14.92878906 40.55429687 13.85757813 40.83984375 12.75390625 C41.20554924 11.35672373 41.57144446 9.95959085 41.9375 8.5625 C42.11990234 7.85544922 42.30230469 7.14839844 42.49023438 6.41992188 C43.88671875 1.11328125 43.88671875 1.11328125 45 0 C47.01964199 -0.07244053 49.04167124 -0.08377188 51.0625 -0.0625 C52.71958984 -0.04896484 52.71958984 -0.04896484 54.41015625 -0.03515625 C55.26480469 -0.02355469 56.11945313 -0.01195313 57 0 C54.96150996 7.19386557 52.51843632 14.15709165 49.8125 21.125 C49.44447266 22.08148438 49.07644531 23.03796875 48.69726562 24.0234375 C47.80145345 26.35022238 46.90119754 28.67529565 46 31 C42.04 31 38.08 31 34 31 C32.35 26.38 30.7 21.76 29 17 C27.06061181 19.90908228 26.03225043 22.40862379 24.875 25.6875 C24.25625 27.440625 23.6375 29.19375 23 31 C19.04 31 15.08 31 11 31 C0 2.91292135 0 2.91292135 0 0 Z " fill="#1A3676" transform="translate(301,116)"/>
<path d="M0 0 C4.29 0 8.58 0 13 0 C13.33 6.27 13.66 12.54 14 19 C16.97 15.535 16.97 15.535 20 12 C23.34160556 11.46934576 25.60665586 11.31044973 28.875 11.5625 C30.050625 11.60987305 30.050625 11.60987305 31.25 11.65820312 C33.1683033 11.74008192 35.08465781 11.86562744 37 12 C33.66666667 15.33333333 30.33333333 18.66666667 27 22 C28.82340974 27.03836901 31.53440122 31.50439653 34.25390625 36.09179688 C37 40.79435668 37 40.79435668 37 43 C32.38 43 27.76 43 23 43 C18 34.25 18 34.25 18 32 C15.89788303 32.96663749 15.89788303 32.96663749 14 35 C13.33450549 37.69924572 13.18319237 40.20631637 13 43 C8.71 43 4.42 43 0 43 C0 28.81 0 14.62 0 0 Z " fill="#1A3676" transform="translate(428,104)"/>
<path d="M0 0 C0.7425 -0.02900391 1.485 -0.05800781 2.25 -0.08789062 C7.49852729 -0.14816523 10.51308833 0.7658209 14.625 4.3125 C16.66323459 7.51925816 16.91901196 10.19154132 17.0390625 13.953125 C17.09707031 15.55800781 17.09707031 15.55800781 17.15625 17.1953125 C17.1871875 18.30648437 17.218125 19.41765625 17.25 20.5625 C17.30800781 22.25246094 17.30800781 22.25246094 17.3671875 23.9765625 C17.46136983 26.75494109 17.54427028 29.53369799 17.625 32.3125 C13.665 32.3125 9.705 32.3125 5.625 32.3125 C5.625 31.6525 5.625 30.9925 5.625 30.3125 C4.696875 30.8075 3.76875 31.3025 2.8125 31.8125 C-2.15239754 33.91148107 -7.07702592 34.13981127 -12.375 33.3125 C-15.47822486 32.02840696 -16.21870674 31.10985342 -18.375 28.3125 C-19.15920671 25.45245198 -19.33058572 23.13121095 -18.375 20.3125 C-14.54405894 15.36696915 -10.97851166 14.29292936 -5.125 13.1875 C-2.47466401 12.66956462 0.02245411 12.06711947 2.625 11.3125 C2.955 10.3225 3.285 9.3325 3.625 8.3125 C-1.39035052 8.64210216 -1.39035052 8.64210216 -5.375 11.3125 C-7.43359375 11.54296875 -7.43359375 11.54296875 -9.8125 11.5 C-10.98619141 11.49033203 -10.98619141 11.49033203 -12.18359375 11.48046875 C-14.375 11.3125 -14.375 11.3125 -17.375 10.3125 C-17.02703317 7.18079849 -16.56225914 5.54495962 -14.5625 3.0625 C-10.29027961 -0.35527631 -5.28032964 0.06804549 0 0 Z M-5.375 21.3125 C-5.375 22.6325 -5.375 23.9525 -5.375 25.3125 C-2.52538233 26.47345535 -1.53554927 26.37817925 1.375 25.1875 C3.9150369 23.50869237 3.9150369 23.50869237 3.9375 20.625 C3.834375 19.861875 3.73125 19.09875 3.625 18.3125 C0.32144454 18.3125 -2.39608249 19.98853666 -5.375 21.3125 Z " fill="#1A3676" transform="translate(291.375,42.6875)"/>
<path d="M0 0 C3.8328003 2.27313264 6.05348257 4.49628891 7.39453125 8.82421875 C8.17422256 12.15956492 8.70703125 15.17196891 8.70703125 18.60546875 C0.78703125 18.60546875 -7.13296875 18.60546875 -15.29296875 18.60546875 C-14.96296875 19.92546875 -14.63296875 21.24546875 -14.29296875 22.60546875 C-8.97126381 22.90109242 -8.97126381 22.90109242 -4.29296875 20.60546875 C-1.59375 20.62890625 -1.59375 20.62890625 1.39453125 20.98046875 C2.88533203 21.14675781 2.88533203 21.14675781 4.40625 21.31640625 C5.16550781 21.41179687 5.92476563 21.5071875 6.70703125 21.60546875 C6.70703125 24.60546875 6.70703125 24.60546875 4.51953125 27.16796875 C-0.1954762 31.25430854 -4.05655218 31.89785827 -10.23046875 31.91796875 C-11.41511719 31.93472656 -12.59976563 31.95148438 -13.8203125 31.96875 C-18.89760118 31.43760506 -22.14867681 29.84254112 -25.60546875 26.10546875 C-29.06833616 20.97529481 -28.87939217 15.59536507 -28.29296875 9.60546875 C-27.03170297 5.44937007 -24.72904183 2.97518289 -21.41796875 0.16796875 C-15.13309974 -2.99491544 -6.3382395 -2.68416548 0 0 Z M-13.29296875 6.60546875 C-13.95296875 8.25546875 -14.61296875 9.90546875 -15.29296875 11.60546875 C-11.99296875 11.60546875 -8.69296875 11.60546875 -5.29296875 11.60546875 C-5.86422229 7.86271663 -5.86422229 7.86271663 -7.29296875 6.60546875 C-9.29255239 6.56466092 -11.29342129 6.56292519 -13.29296875 6.60546875 Z " fill="#1A3676" transform="translate(265.29296875,116.39453125)"/>
<path d="M0 0 C3.8328003 2.27313264 6.05348257 4.49628891 7.39453125 8.82421875 C8.17422256 12.15956492 8.70703125 15.17196891 8.70703125 18.60546875 C0.78703125 18.60546875 -7.13296875 18.60546875 -15.29296875 18.60546875 C-14.96296875 19.92546875 -14.63296875 21.24546875 -14.29296875 22.60546875 C-8.97126381 22.90109242 -8.97126381 22.90109242 -4.29296875 20.60546875 C-1.59375 20.62890625 -1.59375 20.62890625 1.39453125 20.98046875 C2.88533203 21.14675781 2.88533203 21.14675781 4.40625 21.31640625 C5.16550781 21.41179687 5.92476563 21.5071875 6.70703125 21.60546875 C6.70703125 24.60546875 6.70703125 24.60546875 4.51953125 27.16796875 C-0.1954762 31.25430854 -4.05655218 31.89785827 -10.23046875 31.91796875 C-11.41511719 31.93472656 -12.59976563 31.95148438 -13.8203125 31.96875 C-18.89760118 31.43760506 -22.14867681 29.84254112 -25.60546875 26.10546875 C-29.06833616 20.97529481 -28.87939217 15.59536507 -28.29296875 9.60546875 C-27.03170297 5.44937007 -24.72904183 2.97518289 -21.41796875 0.16796875 C-15.13309974 -2.99491544 -6.3382395 -2.68416548 0 0 Z M-13.29296875 6.60546875 C-13.95296875 8.25546875 -14.61296875 9.90546875 -15.29296875 11.60546875 C-11.99296875 11.60546875 -8.69296875 11.60546875 -5.29296875 11.60546875 C-5.86422229 7.86271663 -5.86422229 7.86271663 -7.29296875 6.60546875 C-9.29255239 6.56466092 -11.29342129 6.56292519 -13.29296875 6.60546875 Z " fill="#1A3676" transform="translate(261.29296875,44.39453125)"/>
<path d="M0 0 C3.82786485 2.29671891 6.24379686 5.13164648 7.5 9.4375 C8.10843784 14.31199629 8.17781924 18.70529527 6.375 23.3125 C2.53094878 27.66909138 -1.1557147 31.18655796 -7.20703125 31.640625 C-17.90177471 31.80205509 -17.90177471 31.80205509 -22.5 28.4375 C-26.59973129 24.23695564 -28.65813141 21.14038039 -28.8125 15.25 C-28.7320644 9.66338186 -28.04978574 6.78598753 -24.5 2.4375 C-17.72037437 -3.03835147 -7.84954266 -3.38291857 0 0 Z M-14.3125 8.5625 C-15.8348187 10.96616111 -16.30111631 12.58683376 -16.5 15.4375 C-15.64228658 18.67986568 -15.64228658 18.67986568 -14.5 21.4375 C-12.19 21.7675 -9.88 22.0975 -7.5 22.4375 C-4.67830086 17.19856632 -4.67830086 17.19856632 -5.3125 11.5 C-5.704375 10.489375 -6.09625 9.47875 -6.5 8.4375 C-10.54650363 7.27752983 -10.54650363 7.27752983 -14.3125 8.5625 Z " fill="#1A3676" transform="translate(387.5,116.5625)"/>
<path d="M0 0 C3.82786485 2.29671891 6.24379686 5.13164648 7.5 9.4375 C8.10843784 14.31199629 8.17781924 18.70529527 6.375 23.3125 C2.53094878 27.66909138 -1.1557147 31.18655796 -7.20703125 31.640625 C-17.90177471 31.80205509 -17.90177471 31.80205509 -22.5 28.4375 C-26.59973129 24.23695564 -28.65813141 21.14038039 -28.8125 15.25 C-28.7320644 9.66338186 -28.04978574 6.78598753 -24.5 2.4375 C-17.72037437 -3.03835147 -7.84954266 -3.38291857 0 0 Z M-14.3125 8.5625 C-15.8348187 10.96616111 -16.30111631 12.58683376 -16.5 15.4375 C-15.64228658 18.67986568 -15.64228658 18.67986568 -14.5 21.4375 C-12.19 21.7675 -9.88 22.0975 -7.5 22.4375 C-4.67830086 17.19856632 -4.67830086 17.19856632 -5.3125 11.5 C-5.704375 10.489375 -6.09625 9.47875 -6.5 8.4375 C-10.54650363 7.27752983 -10.54650363 7.27752983 -14.3125 8.5625 Z " fill="#1A3676" transform="translate(407.5,44.5625)"/>
<path d="M0 0 C3.12947641 1.88304683 4.87453398 3.8973307 6.3125 7.3125 C6.3125 7.9725 6.3125 8.6325 6.3125 9.3125 C4.89872218 9.67802803 3.48129424 10.02945495 2.0625 10.375 C1.27359375 10.57222656 0.4846875 10.76945312 -0.328125 10.97265625 C-2.82564708 11.33239867 -4.34300803 11.2202126 -6.6875 10.3125 C-7.0175 9.6525 -7.3475 8.9925 -7.6875 8.3125 C-10.56114791 7.89503392 -10.56114791 7.89503392 -13.6875 8.3125 C-15.83913476 10.25600714 -15.83913476 10.25600714 -16.6875 13.3125 C-16.62587426 16.09079356 -16.20032925 18.56187041 -15.6875 21.3125 C-11.66634992 21.59444233 -11.66634992 21.59444233 -7.6875 21.3125 C-7.213125 20.631875 -6.73875 19.95125 -6.25 19.25 C-5.734375 18.610625 -5.21875 17.97125 -4.6875 17.3125 C-0.88064422 17.1709812 2.8905075 17.60150375 6.3125 19.3125 C6.0124825 22.81270422 5.35516259 24.26154191 3.0625 27 C-2.41839824 31.60893716 -7.49667256 31.75090864 -14.453125 31.625 C-20.43696705 31.04685101 -23.9899868 29.0100132 -28.1875 24.8125 C-30.84270898 18.61701237 -30.65349733 12.15965001 -28.5 5.8125 C-22.09414007 -3.02316887 -9.7373404 -4.5053366 0 0 Z " fill="#1A3676" transform="translate(368.6875,44.6875)"/>
<path d="M0 0 C0 3.96 0 7.92 0 12 C2.31 12 4.62 12 7 12 C7 14.97 7 17.94 7 21 C4.69 21 2.38 21 0 21 C0.495 27.93 0.495 27.93 1 35 C3.97 34.505 3.97 34.505 7 34 C7 36.97 7 39.94 7 43 C4.33443537 44.33278232 2.16353002 44.2795909 -0.8125 44.375 C-1.85019531 44.42398438 -2.88789063 44.47296875 -3.95703125 44.5234375 C-7 44 -7 44 -9.8671875 42.05859375 C-12.80492745 37.84568097 -12.56894176 34.68614166 -12.3125 29.6875 C-12.27866211 28.43356445 -12.27866211 28.43356445 -12.24414062 27.15429688 C-12.1855061 25.10208851 -12.09583215 23.05080798 -12 21 C-13.65 21 -15.3 21 -17 21 C-17 18.03 -17 15.06 -17 12 C-15.35 12 -13.7 12 -12 12 C-12 9.69 -12 7.38 -12 5 C-10.37750059 4.16180842 -8.75191503 3.3295884 -7.125 2.5 C-6.22007812 2.0359375 -5.31515625 1.571875 -4.3828125 1.09375 C-2 0 -2 0 0 0 Z " fill="#1A3676" transform="translate(293,104)"/>
<path d="M0 0 C0 3.96 0 7.92 0 12 C2.31 12 4.62 12 7 12 C7 14.97 7 17.94 7 21 C4.69 21 2.38 21 0 21 C0.495 27.93 0.495 27.93 1 35 C3.97 34.505 3.97 34.505 7 34 C7 36.97 7 39.94 7 43 C4.33443537 44.33278232 2.16353002 44.2795909 -0.8125 44.375 C-1.85019531 44.42398438 -2.88789063 44.47296875 -3.95703125 44.5234375 C-7 44 -7 44 -9.8671875 42.05859375 C-12.80492745 37.84568097 -12.56894176 34.68614166 -12.3125 29.6875 C-12.27866211 28.43356445 -12.27866211 28.43356445 -12.24414062 27.15429688 C-12.1855061 25.10208851 -12.09583215 23.05080798 -12 21 C-13.65 21 -15.3 21 -17 21 C-17 18.03 -17 15.06 -17 12 C-15.35 12 -13.7 12 -12 12 C-12 9.69 -12 7.38 -12 5 C-10.37750059 4.16180842 -8.75191503 3.3295884 -7.125 2.5 C-6.22007812 2.0359375 -5.31515625 1.571875 -4.3828125 1.09375 C-2 0 -2 0 0 0 Z " fill="#1A3676" transform="translate(328,32)"/>
<path d="M0 0 C0.99 0.66 1.98 1.32 3 2 C1.68 4.97 0.36 7.94 -1 11 C-2.98 11 -4.96 11 -7 11 C-9.1543038 15.4399676 -9.41745846 19.47418774 -9.625 24.3125 C-9.68300781 25.42334961 -9.68300781 25.42334961 -9.7421875 26.55664062 C-9.83581705 28.37071309 -9.91896851 30.18532116 -10 32 C-14.29 32 -18.58 32 -23 32 C-23 21.77 -23 11.54 -23 1 C-18.33333333 1 -13.66666667 1 -9 1 C-5.98131566 -0.50934217 -3.32702771 -0.17510672 0 0 Z " fill="#1A3676" transform="translate(423,115)"/>
<path d="M0 0 C0.66 2.31 1.32 4.62 2 7 C1.34 7.66 0.68 8.32 0 9 C-1.32 9 -2.64 9 -4 9 C-4 9.99 -4 10.98 -4 12 C-2.33720673 13.0064275 -0.67016516 14.00585407 1 15 C2.3125 17.1875 2.3125 17.1875 3 19 C-0.96 19.495 -0.96 19.495 -5 20 C-5.5878125 19.0409375 -5.5878125 19.0409375 -6.1875 18.0625 C-8.41787342 15.52448887 -9.76382216 15.58085243 -13 15 C-15 12 -15 12 -14.75 9.4375 C-14 7 -14 7 -12 5 C-9.375 4.875 -9.375 4.875 -7 5 C-6.896875 4.360625 -6.79375 3.72125 -6.6875 3.0625 C-6.460625 2.381875 -6.23375 1.70125 -6 1 C-3 0 -3 0 0 0 Z M-3 2 C-3.33 2.66 -3.66 3.32 -4 4 C-3.67 4.99 -3.34 5.98 -3 7 C-2.34 7 -1.68 7 -1 7 C-1.33 5.35 -1.66 3.7 -2 2 C-2.33 2 -2.66 2 -3 2 Z M-4 15 C-4 15.66 -4 16.32 -4 17 C-3.34 17 -2.68 17 -2 17 C-2 16.34 -2 15.68 -2 15 C-2.66 15 -3.32 15 -4 15 Z " fill="#2092EE" transform="translate(32,14)"/>
<path d="M0 0 C2.25 -0.3125 2.25 -0.3125 5 0 C9 4.10810811 9 4.10810811 9 7 C7.68 7 6.36 7 5 7 C5.66 10.3 6.32 13.6 7 17 C5.02 17.66 3.04 18.32 1 19 C-1.0625 16.8125 -1.0625 16.8125 -3 14 C-2.75 11.1875 -2.75 11.1875 -2 9 C-1.34 9 -0.68 9 0 9 C0 6.03 0 3.06 0 0 Z M0 10 C0.66 11.98 1.32 13.96 2 16 C2.99 16 3.98 16 5 16 C4.34 14.02 3.68 12.04 3 10 C2.01 10 1.02 10 0 10 Z " fill="#208FEA" transform="translate(35,13)"/>
<path d="M0 0 C0.99 0 1.98 0 3 0 C3 0.66 3 1.32 3 2 C2.34 2 1.68 2 1 2 C1.33773437 2.80824219 1.67546875 3.61648437 2.0234375 4.44921875 C2.46945313 5.51785156 2.91546875 6.58648437 3.375 7.6875 C3.81585938 8.74324219 4.25671875 9.79898437 4.7109375 10.88671875 C5.82757462 13.58356657 6.92291801 16.28716264 8 19 C4.04 19.495 4.04 19.495 0 20 C-1 12.25 -1 12.25 -1 10 C-1.20625 9.05125 -1.4125 8.1025 -1.625 7.125 C-2.01886461 3.84279488 -1.76827834 2.7044257 0 0 Z " fill="#2089E2" transform="translate(44,20)"/>
<path d="M0 0 C3.29714793 0.32971479 4.6226839 0.6226839 7 3 C6.625 6.125 6.625 6.125 6 9 C0.56559513 10.32841008 0.56559513 10.32841008 -1.9375 8.875 C-3 7 -3 7 -2.8125 4.4375 C-2 2 -2 2 0 0 Z " fill="#208EE9" transform="translate(22,33)"/>
<path d="M0 0 C0.99 0 1.98 0 3 0 C3.33 1.65 3.66 3.3 4 5 C2.68 5.33 1.36 5.66 0 6 C-0.66 4.68 -1.32 3.36 -2 2 C-1.34 1.34 -0.68 0.68 0 0 Z " fill="#208AE4" transform="translate(27,43)"/>
<path d="M0 0 C1.32 0 2.64 0 4 0 C3.67 1.32 3.34 2.64 3 4 C2.01 3.67 1.02 3.34 0 3 C0 2.01 0 1.02 0 0 Z " fill="#2192EE" transform="translate(17,30)"/>
</svg>
